<svg version="1.1" id="Layer_1" xmlns="http://www.w3.org/2000/svg" xmlns:xlink="http://www.w3.org/1999/xlink" x="0px" y="0px"
	 width="100%" viewBox="0 0 96 96" enable-background="new 0 0 96 96" xml:space="preserve">
<path fill="#000000" opacity="1.000000" stroke="none" 
	d="
M60.000000,97.000000 
	C40.000004,97.000000 20.500008,97.000000 1.000008,97.000000 
	C1.000005,65.000008 1.000005,33.000019 1.000003,1.000021 
	C32.999985,1.000014 64.999969,1.000014 96.999969,1.000007 
	C96.999977,32.999981 96.999977,64.999962 96.999985,96.999969 
	C84.833336,97.000000 72.666664,97.000000 60.000000,97.000000 
M44.899490,38.397228 
	C39.108177,32.270966 32.764992,26.559317 27.733490,19.862211 
	C24.737589,15.874565 20.920729,14.565245 16.921703,13.149007 
	C14.482991,12.285347 12.310616,13.800320 13.131973,16.593544 
	C14.071308,19.787991 15.174170,23.428246 17.417526,25.653252 
	C24.298307,32.477749 31.758968,38.717587 38.728336,45.767448 
	C37.581692,47.273643 34.714626,48.188431 36.373608,51.174881 
	C29.433599,57.772900 22.504215,64.382149 15.548910,70.964005 
	C12.274731,74.062386 11.918508,80.595688 14.919818,83.424362 
	C17.847712,86.183838 23.892826,85.629936 26.905035,82.354095 
	C34.122074,74.505394 41.352226,66.668755 48.945049,59.344700 
	C54.304459,66.278656 59.367867,73.474998 65.168030,80.018265 
	C67.509117,82.659294 71.353249,85.112900 74.709557,85.406128 
	C78.515778,85.738663 82.503525,83.654968 84.312943,79.240601 
	C86.470062,73.977936 84.221237,68.454636 78.478607,64.062630 
	C71.781677,58.940769 65.374840,53.439617 59.194752,47.437943 
	C62.023067,44.107452 65.289841,43.720867 69.515289,44.839745 
	C73.434959,45.877655 77.036438,44.524414 80.294792,41.404415 
	C85.710831,36.218338 85.927078,30.227764 84.585709,22.551895 
	C81.682152,25.599575 79.434258,28.239014 76.894440,30.558859 
	C73.147873,33.980946 70.364143,31.094156 68.160477,28.479425 
	C66.236649,26.196722 63.863052,23.431128 68.343178,20.776262 
	C70.914970,19.252249 73.034271,16.964628 76.228218,14.291959 
	C67.909515,11.749441 61.845676,12.829036 56.602089,17.204449 
	C51.897034,21.130497 53.107723,26.765825 53.010433,32.006493 
	C52.979050,33.696976 52.148796,35.372627 51.049057,37.004520 
	C49.099693,37.674519 47.150330,38.344517 44.899490,38.397228 
z"/>
<path fill="#FFC107" opacity="1.000000" stroke="none" 
	d="
M58.842129,48.103043 
	C65.374840,53.439617 71.781677,58.940769 78.478607,64.062630 
	C84.221237,68.454636 86.470062,73.977936 84.312943,79.240601 
	C82.503525,83.654968 78.515778,85.738663 74.709557,85.406128 
	C71.353249,85.112900 67.509117,82.659294 65.168030,80.018265 
	C59.367867,73.474998 54.304459,66.278656 48.629959,58.766258 
	C46.783379,56.908493 45.251892,55.629177 43.829597,53.995407 
	C47.273918,50.096394 50.609043,46.551834 54.163109,43.258007 
	C55.868740,45.040176 57.355434,46.571609 58.842129,48.103043 
z"/>
<path fill="#617D8B" opacity="1.000000" stroke="none" 
	d="
M59.018440,47.770493 
	C57.355434,46.571609 55.868740,45.040176 54.149117,42.902008 
	C53.172119,40.548534 52.428059,38.801796 51.683998,37.055061 
	C52.148796,35.372627 52.979050,33.696976 53.010433,32.006493 
	C53.107723,26.765825 51.897034,21.130497 56.602089,17.204449 
	C61.845676,12.829036 67.909515,11.749441 76.228218,14.291959 
	C73.034271,16.964628 70.914970,19.252249 68.343178,20.776262 
	C63.863052,23.431128 66.236649,26.196722 68.160477,28.479425 
	C70.364143,31.094156 73.147873,33.980946 76.894440,30.558859 
	C79.434258,28.239014 81.682152,25.599575 84.585709,22.551895 
	C85.927078,30.227764 85.710831,36.218338 80.294792,41.404415 
	C77.036438,44.524414 73.434959,45.877655 69.515289,44.839745 
	C65.289841,43.720867 62.023067,44.107452 59.018440,47.770493 
z"/>
<path fill="#617D8B" opacity="1.000000" stroke="none" 
	d="
M43.720402,54.349854 
	C45.251892,55.629177 46.783379,56.908493 48.445976,58.507530 
	C41.352226,66.668755 34.122074,74.505394 26.905035,82.354095 
	C23.892826,85.629936 17.847712,86.183838 14.919818,83.424362 
	C11.918508,80.595688 12.274731,74.062386 15.548910,70.964005 
	C22.504215,64.382149 29.433599,57.772900 36.981785,51.183712 
	C39.633442,52.244980 41.676922,53.297417 43.720402,54.349854 
z"/>
<path fill="#B0BEC5" opacity="1.000000" stroke="none" 
	d="
M38.994167,45.184742 
	C31.758968,38.717587 24.298307,32.477749 17.417526,25.653252 
	C15.174170,23.428246 14.071308,19.787991 13.131973,16.593544 
	C12.310616,13.800320 14.482991,12.285347 16.921703,13.149007 
	C20.920729,14.565245 24.737589,15.874565 27.733490,19.862211 
	C32.764992,26.559317 39.108177,32.270966 44.908657,39.015358 
	C42.943272,41.483906 40.968719,43.334324 38.994167,45.184742 
z"/>
<path fill="#FC9A04" opacity="1.000000" stroke="none" 
	d="
M38.861252,45.476097 
	C40.968719,43.334324 42.943272,41.483906 45.059395,39.323997 
	C47.150330,38.344517 49.099693,37.674519 51.366528,37.029793 
	C52.428059,38.801796 53.172119,40.548534 53.930176,42.651272 
	C50.609043,46.551834 47.273918,50.096394 43.829597,53.995407 
	C41.676922,53.297417 39.633442,52.244980 37.282814,51.029289 
	C34.714626,48.188431 37.581692,47.273643 38.861252,45.476097 
z"/>
</svg>